<?xml version="1.0" standalone="no"?>
<!DOCTYPE svg PUBLIC "-//W3C//DTD SVG 20010904//EN"
 "http://www.w3.org/TR/2001/REC-SVG-20010904/DTD/svg10.dtd">
<svg version="1.0" xmlns="http://www.w3.org/2000/svg"
 width="239.000000pt" height="148.000000pt" viewBox="0 0 239.000000 148.000000"
 preserveAspectRatio="xMidYMid meet">

<g transform="translate(0.000000,148.000000) scale(0.100000,-0.100000)"
fill="#000000" stroke="none">
<path d="M147 1461 c21 -22 89 -33 85 -13 -1 8 10 12 33 12 39 0 48 -16 13
-23 -13 -2 -2 -5 25 -6 26 0 47 1 47 4 0 2 -18 14 -40 25 -28 14 -59 20 -110
20 -69 0 -70 0 -53 -19z"/>
<path d="M505 1470 c28 -12 47 -12 40 0 -3 6 -18 10 -33 9 -24 0 -25 -1 -7 -9z"/>
<path d="M968 1473 c7 -3 16 -2 19 1 4 3 -2 6 -13 5 -11 0 -14 -3 -6 -6z"/>
<path d="M1727 1466 c-21 -8 -53 -17 -72 -20 -19 -4 -35 -12 -35 -17 0 -6 -9
-7 -21 -4 -12 4 -39 0 -63 -10 -22 -10 -50 -21 -61 -26 -38 -16 -103 -29 -136
-28 -120 2 -212 -2 -204 -10 6 -5 50 -13 98 -19 93 -10 103 -14 92 -32 -5 -8
-34 -9 -96 -4 -73 5 -90 4 -94 -8 -4 -10 -15 -13 -31 -10 -14 2 -24 0 -24 -7
0 -6 -14 -11 -31 -11 -20 0 -28 -4 -23 -11 5 -9 -12 -10 -62 -6 -47 4 -61 3
-44 -3 17 -6 -3 -8 -67 -6 -51 2 -93 0 -93 -4 0 -4 18 -12 40 -19 22 -6 40
-16 40 -21 0 -14 -47 -43 -58 -36 -5 3 -38 -4 -73 -15 -74 -24 -104 -45 -49
-35 100 19 179 24 318 21 137 -3 158 -6 205 -29 28 -13 62 -36 74 -50 13 -14
29 -26 37 -26 7 0 20 -8 27 -17 8 -10 9 -14 2 -10 -6 4 -14 3 -17 -2 -7 -10
20 -9 30 2 11 11 36 8 29 -3 -3 -5 -2 -10 4 -10 5 0 12 6 14 13 3 6 6 3 7 -8
1 -20 1 -20 15 -1 11 14 15 16 15 5 0 -9 3 -10 8 -3 4 6 30 11 59 10 31 -1 51
2 50 9 -1 5 15 11 36 13 31 3 38 7 33 20 -3 9 8 2 25 -17 17 -18 27 -37 22
-41 -38 -38 -183 -79 -183 -52 0 10 -36 9 -46 -1 -4 -3 -14 3 -24 15 -15 19
-17 19 -23 5 -4 -10 -1 -17 5 -17 6 0 9 -3 6 -6 -4 -3 -19 1 -35 8 -29 15 -63
13 -63 -3 0 -5 -15 -9 -32 -8 -18 0 -105 -2 -193 -5 -120 -4 -838 -17 -1042
-18 l-23 0 0 -449 0 -449 1195 0 1195 0 0 441 c-1 389 -2 443 -16 457 -15 14
-15 17 0 27 9 7 16 18 16 24 0 16 -47 57 -87 77 -18 9 -30 20 -27 25 3 5 13 5
22 1 9 -5 24 -8 32 -7 8 1 25 3 38 3 l22 2 0 215 0 215 -312 0 c-237 -1 -322
-4 -351 -14z m-130 -78 c-3 -8 -6 -5 -6 6 -1 11 2 17 5 13 3 -3 4 -12 1 -19z
m349 -306 c-6 -5 -36 23 -36 34 0 4 9 -1 20 -11 11 -10 18 -20 16 -23z m304
-22 c8 -5 12 -11 9 -14 -3 -3 -14 1 -25 9 -21 16 -8 20 16 5z m-1263 -216 c-3
-3 -12 -4 -19 -1 -8 3 -5 6 6 6 11 1 17 -2 13 -5z m93 -58 c0 -3 -4 -8 -10
-11 -5 -3 -10 -1 -10 4 0 6 5 11 10 11 6 0 10 -2 10 -4z m-435 -76 c-16 -10
-31 -17 -34 -14 -7 6 32 33 49 34 8 0 2 -9 -15 -20z m1249 -5 c-7 -17 -20 -20
-28 -6 -4 5 0 12 6 14 23 9 28 7 22 -8z m-49 -25 c-3 -5 -16 -15 -28 -21 -21
-10 -21 -9 2 10 25 23 36 27 26 11z m325 6 c0 -11 -19 -15 -25 -6 -3 5 1 10 9
10 9 0 16 -2 16 -4z m41 -14 c-7 -2 -18 1 -23 6 -8 8 -4 9 13 5 13 -4 18 -8
10 -11z m-568 -29 c-7 -2 -19 -2 -25 0 -7 3 -2 5 12 5 14 0 19 -2 13 -5z m123
-21 c-18 -16 -18 -16 -6 6 6 13 14 21 18 18 3 -4 -2 -14 -12 -24z m-1713 -9
c-7 -2 -19 -2 -25 0 -7 3 -2 5 12 5 14 0 19 -2 13 -5z m62 -13 c3 -5 1 -10 -4
-10 -6 0 -11 5 -11 10 0 6 2 10 4 10 3 0 8 -4 11 -10z m1882 -16 c-7 -7 -37 7
-37 17 0 6 9 5 21 -1 11 -7 19 -14 16 -16z m-47 6 c0 -6 -11 -8 -27 -4 -40 10
-41 14 -5 14 18 0 32 -5 32 -10z m-1206 -16 c-17 -8 -35 -24 -40 -34 -6 -14
-13 -17 -23 -11 -11 7 -9 14 13 33 16 13 40 25 55 26 26 2 25 1 -5 -14z m-459
-22 c-3 -3 -11 0 -18 7 -9 10 -8 11 6 5 10 -3 15 -9 12 -12z m1499 0 c4 -7
-38 -62 -47 -62 -1 0 -2 11 -2 24 0 13 3 22 8 19 4 -2 12 -1 18 3 8 4 7 9 -2
15 -11 7 -10 9 3 9 9 0 19 -4 22 -8z m-236 -40 c2 -7 -1 -12 -8 -12 -6 0 -9 4
-6 9 4 5 1 12 -4 14 -6 3 -5 4 2 3 6 -1 14 -8 16 -14z m352 8 c0 -5 -8 -10
-17 -10 -15 0 -16 2 -3 10 19 12 20 12 20 0z m-1590 -10 c12 -8 11 -10 -7 -10
-13 0 -23 5 -23 10 0 13 11 13 30 0z m1503 -4 c3 -8 -1 -17 -10 -20 -20 -8
-25 -3 -17 18 8 20 20 21 27 2z m477 0 c0 -3 -4 -8 -10 -11 -5 -3 -10 -1 -10
4 0 6 5 11 10 11 6 0 10 -2 10 -4z m-810 -16 c13 -8 13 -10 -2 -10 -9 0 -20 5
-23 10 -8 13 5 13 25 0z m-1025 -38 c-3 -3 -11 0 -18 7 -9 10 -8 11 6 5 10 -3
15 -9 12 -12z m908 12 c9 -9 -13 -62 -30 -68 -19 -8 -33 1 -33 20 0 8 -9 14
-22 13 -22 0 -22 -1 -3 -9 l20 -9 -20 -1 c-71 -7 -75 17 -5 30 38 7 40 6 41
-19 l2 -26 4 28 c3 20 10 27 26 27 18 0 19 2 7 10 -8 5 -10 10 -4 10 6 0 13
-3 17 -6z m160 -31 c-7 -2 -19 -2 -25 0 -7 3 -2 5 12 5 14 0 19 -2 13 -5z
m-913 -27 c0 -3 -4 -8 -10 -11 -5 -3 -10 -1 -10 4 0 6 5 11 10 11 6 0 10 -2
10 -4z m400 -27 c0 -26 -30 -39 -94 -39 -64 0 -66 1 -66 25 0 25 1 25 80 25
50 0 80 -4 80 -11z m-20 -63 c0 -2 -7 -9 -15 -16 -12 -10 -15 -10 -15 4 0 9 7
16 15 16 8 0 15 -2 15 -4z m-40 -53 c-1 -11 -37 -53 -45 -53 -4 0 -2 6 4 14 9
11 6 15 -16 21 l-28 8 25 7 c34 11 60 12 60 3z"/>
<path d="M88 1463 c7 -3 16 -2 19 1 4 3 -2 6 -13 5 -11 0 -14 -3 -6 -6z"/>
</g>
</svg>
